<?xml version="1.0" standalone="no"?><!DOCTYPE svg PUBLIC "-//W3C//DTD SVG 1.1//EN" "http://www.w3.org/Graphics/SVG/1.1/DTD/svg11.dtd"><svg t="1715929639863" class="icon" viewBox="0 0 1024 1024" version="1.1" xmlns="http://www.w3.org/2000/svg" p-id="1682" xmlns:xlink="http://www.w3.org/1999/xlink" width="50" height="50"><path d="M112 323.648v-0.064a32 32 0 1 0-53.248 35.52v0.128l0.192 0.192 0.448 0.64a259.008 259.008 0 0 0 8 11.264 785.024 785.024 0 0 0 72.512 83.52L62.72 532.032a32 32 0 0 0 45.248 45.248l79.168-79.168c40.832 34.368 91.328 68.992 149.824 94.08l-44.416 73.984a32 32 0 1 0 54.912 32.96l51.2-85.312A427.008 427.008 0 0 0 512 629.312c39.936 0 77.824-5.76 113.408-15.488l51.2 85.312a32 32 0 1 0 54.848-32.96l-44.416-73.984c58.496-25.088 108.992-59.712 149.824-94.08l79.168 79.168a32 32 0 1 0 45.248-45.248l-77.184-77.184a784 784 0 0 0 72.512-83.52 432.448 432.448 0 0 0 8-11.2l0.448-0.704 0.128-0.192 0.128-0.128a32 32 0 0 0-53.248-35.52l-0.32 0.448-1.28 1.856a597.888 597.888 0 0 1-27.072 35.008c-19.136 22.912-47.232 53.568-82.88 84.16-71.872 61.568-171.328 120.32-288.512 120.32s-216.64-58.752-288.512-120.32a715.264 715.264 0 0 1-104.576-111.744 372.096 372.096 0 0 1-5.376-7.488l-1.28-1.792-0.256-0.384z" fill="#333333" p-id="1683"></path></svg>